<?xml version="1.0" encoding="UTF-8"?>
<svg version="1.1" xmlns="http://www.w3.org/2000/svg" width="180" height="180">
<path d="M0 0 C59.4 0 118.8 0 180 0 C180 59.4 180 118.8 180 180 C120.6 180 61.2 180 0 180 C0 120.6 0 61.2 0 0 Z " fill="#060D17" transform="translate(0,0)"/>
<path d="M0 0 C12.67460665 9.64998461 20.31690357 25.53473514 22.953125 41.05078125 C25.01089934 58.22255329 23.279581 74.70372921 14.40625 89.83203125 C14.1896875 88.87296875 14.1896875 88.87296875 13.96875 87.89453125 C13.59617819 85.85657979 13.59617819 85.85657979 12.40625 84.83203125 C10.21985547 84.75944179 8.03124611 84.74829342 5.84375 84.76953125 C4.64621094 84.77855469 3.44867188 84.78757812 2.21484375 84.796875 C0.82458984 84.81427734 0.82458984 84.81427734 -0.59375 84.83203125 C-0.99207031 83.84074219 -1.39039062 82.84945312 -1.80078125 81.828125 C-3.60369591 77.62132413 -5.88644936 73.78655972 -8.28125 69.89453125 C-8.69697266 69.21068359 -9.11269531 68.52683594 -9.54101562 67.82226562 C-10.55452963 66.15637479 -11.57356361 64.49384431 -12.59375 62.83203125 C-12.67444658 65.79090584 -12.73409665 68.74759715 -12.78125 71.70703125 C-12.80638672 72.54878906 -12.83152344 73.39054687 -12.85742188 74.2578125 C-12.87192383 75.46630859 -12.87192383 75.46630859 -12.88671875 76.69921875 C-12.91028442 77.81466064 -12.91028442 77.81466064 -12.93432617 78.95263672 C-12.76574097 79.88293701 -12.76574097 79.88293701 -12.59375 80.83203125 C-11.60375 81.49203125 -10.61375 82.15203125 -9.59375 82.83203125 C-9.59375 83.49203125 -9.59375 84.15203125 -9.59375 84.83203125 C-18.83375 84.83203125 -28.07375 84.83203125 -37.59375 84.83203125 C-37.59375 84.17203125 -37.59375 83.51203125 -37.59375 82.83203125 C-36.60375 82.33703125 -36.60375 82.33703125 -35.59375 81.83203125 C-36.08875 76.88203125 -36.08875 76.88203125 -36.59375 71.83203125 C-42.20375 71.83203125 -47.81375 71.83203125 -53.59375 71.83203125 C-53.92375 75.13203125 -54.25375 78.43203125 -54.59375 81.83203125 C-53.93375 82.16203125 -53.27375 82.49203125 -52.59375 82.83203125 C-52.59375 83.49203125 -52.59375 84.15203125 -52.59375 84.83203125 C-56.55375 84.83203125 -60.51375 84.83203125 -64.59375 84.83203125 C-64.59375 84.17203125 -64.59375 83.51203125 -64.59375 82.83203125 C-63.10875 81.84203125 -63.10875 81.84203125 -61.59375 80.83203125 C-60.86409634 78.26920383 -60.86409634 78.26920383 -60.59375 75.83203125 C-62.57375 76.32703125 -62.57375 76.32703125 -64.59375 76.83203125 C-69.09876946 59.9155927 -68.84986908 39.89915208 -61.59375 23.83203125 C-61.14773437 22.82527344 -60.70171875 21.81851563 -60.2421875 20.78125 C-54.7219898 9.63291777 -45.60113423 -0.34085557 -34.01953125 -5.26171875 C-22.02727628 -9.22852897 -10.50084748 -6.82887392 0 0 Z " fill="#080F18" transform="translate(111.59375,37.16796875)"/>
<path d="M0 0 C0.99 0.33 1.98 0.66 3 1 C4.16183901 3.83494062 5.12814078 6.57783183 6.03125 9.49609375 C6.30843872 10.35880386 6.58562744 11.22151398 6.87121582 12.11036682 C7.7588499 14.88259877 8.6294768 17.65985323 9.5 20.4375 C10.08615173 22.27573786 10.67337896 24.11363315 11.26171875 25.95117188 C12.35220328 29.36833941 13.43851215 32.78671788 14.51367188 36.20874023 C14.75851318 36.98732391 15.00335449 37.76590759 15.25561523 38.56808472 C15.78343136 40.29246728 16.29138568 42.0229861 16.78540039 43.75735474 C17.04248779 44.65606293 17.2995752 45.55477112 17.56445312 46.48071289 C17.90627625 47.70692101 17.90627625 47.70692101 18.25500488 48.957901 C18.90538263 51.1866757 18.90538263 51.1866757 21 53 C22.55327072 51.44672928 22.13481453 49.96375172 22.14526367 47.80322266 C22.15164352 46.91204742 22.15802338 46.02087219 22.16459656 45.10269165 C22.16570938 44.13294403 22.1668222 43.16319641 22.16796875 42.1640625 C22.17129715 41.17377045 22.17462555 40.18347839 22.17805481 39.16317749 C22.18312888 37.06321682 22.18546299 34.96324805 22.18530273 32.86328125 C22.18748596 29.64569821 22.20562767 26.42845965 22.22460938 23.2109375 C22.22754381 21.17448034 22.22952827 19.13802155 22.23046875 17.1015625 C22.23765427 16.13586334 22.24483978 15.17016418 22.25224304 14.17520142 C22.2476281 12.82898209 22.2476281 12.82898209 22.24291992 11.45556641 C22.24434494 10.66582428 22.24576996 9.87608215 22.24723816 9.06240845 C22.12050906 6.69139902 22.12050906 6.69139902 20 4 C24.62 4 29.24 4 34 4 C33.34 4.99 32.68 5.98 32 7 C31.72521627 9.22485741 31.72521627 9.22485741 31.8046875 11.66796875 C31.81435547 13.00698242 31.81435547 13.00698242 31.82421875 14.37304688 C31.84097656 15.30181641 31.85773438 16.23058594 31.875 17.1875 C31.88402344 18.12787109 31.89304688 19.06824219 31.90234375 20.03710938 C31.92590944 22.35832968 31.95880884 24.67903644 32 27 C33.99313304 24.28078746 35.96690118 21.54807589 37.9375 18.8125 C38.50146484 18.04357422 39.06542969 17.27464844 39.64648438 16.48242188 C40.18466797 15.73154297 40.72285156 14.98066406 41.27734375 14.20703125 C41.77484131 13.5210083 42.27233887 12.83498535 42.78491211 12.12817383 C44.14136695 9.75240191 44.60304521 7.69229957 45 5 C44.34 4.67 43.68 4.34 43 4 C47.29 4 51.58 4 56 4 C55.21625 4.86625 54.4325 5.7325 53.625 6.625 C50.44416452 10.34871846 47.51331998 14.23565531 44.625 18.1875 C44.17205566 18.79352051 43.71911133 19.39954102 43.25244141 20.02392578 C40.82672182 23.38725607 40 24.72842232 40 29 C41.00748103 31.28226532 41.00748103 31.28226532 42.44921875 33.58984375 C42.96806641 34.45673828 43.48691406 35.32363281 44.02148438 36.21679688 C44.57126953 37.11462891 45.12105469 38.01246094 45.6875 38.9375 C46.21794922 39.83146484 46.74839844 40.72542969 47.29492188 41.64648438 C50.15890572 46.37996442 52.99628015 50.2042656 57 54 C57 54.66 57 55.32 57 56 C52.71 56 48.42 56 44 56 C43.60167969 55.00871094 43.20335937 54.01742187 42.79296875 52.99609375 C40.99005409 48.78929288 38.70730064 44.95452847 36.3125 41.0625 C35.89677734 40.37865234 35.48105469 39.69480469 35.05273438 38.99023438 C34.03922037 37.32434354 33.02018639 35.66181306 32 34 C31.91930342 36.95887459 31.85965335 39.9155659 31.8125 42.875 C31.78736328 43.71675781 31.76222656 44.55851562 31.73632812 45.42578125 C31.72182617 46.63427734 31.72182617 46.63427734 31.70703125 47.8671875 C31.68346558 48.98262939 31.68346558 48.98262939 31.65942383 50.12060547 C31.77181396 50.74080566 31.8842041 51.36100586 32 52 C32.99 52.66 33.98 53.32 35 54 C35 54.66 35 55.32 35 56 C25.76 56 16.52 56 7 56 C7 55.34 7 54.68 7 54 C7.99 53.505 7.99 53.505 9 53 C8.505 48.05 8.505 48.05 8 43 C2.39 43 -3.22 43 -9 43 C-9.33 46.3 -9.66 49.6 -10 53 C-9.34 53.33 -8.68 53.66 -8 54 C-8 54.66 -8 55.32 -8 56 C-11.96 56 -15.92 56 -20 56 C-20 55.34 -20 54.68 -20 54 C-19.01 53.34 -18.02 52.68 -17 52 C-16.06128094 50.15730353 -16.06128094 50.15730353 -15.421875 47.96850586 C-15.15149414 47.13681381 -14.88111328 46.30512177 -14.60253906 45.44822693 C-14.32120117 44.54621048 -14.03986328 43.64419403 -13.75 42.71484375 C-13.45061523 41.78458878 -13.15123047 40.8543338 -12.84277344 39.89588928 C-11.88517171 36.91285443 -10.94235269 33.92538305 -10 30.9375 C-9.36556895 28.95085685 -8.73016334 26.96452464 -8.09375 24.97851562 C-6.91573763 21.30001002 -5.74428505 17.61953392 -4.578125 13.93725586 C-3.09719073 9.27620589 -1.56065428 4.63490596 0 0 Z " fill="#D2C6A5" transform="translate(67,66)"/>
<path d="M0 0 C4.62 0 9.24 0 14 0 C13.01 1.485 13.01 1.485 12 3 C11.72521627 5.22485741 11.72521627 5.22485741 11.8046875 7.66796875 C11.81113281 8.56064453 11.81757812 9.45332031 11.82421875 10.37304688 C11.84097656 11.30181641 11.85773438 12.23058594 11.875 13.1875 C11.88853516 14.59805664 11.88853516 14.59805664 11.90234375 16.03710938 C11.92590944 18.35832968 11.95880884 20.67903644 12 23 C13.99313304 20.28078746 15.96690118 17.54807589 17.9375 14.8125 C18.50146484 14.04357422 19.06542969 13.27464844 19.64648438 12.48242188 C20.18466797 11.73154297 20.72285156 10.98066406 21.27734375 10.20703125 C21.77484131 9.5210083 22.27233887 8.83498535 22.78491211 8.12817383 C24.14136695 5.75240191 24.60304521 3.69229957 25 1 C24.34 0.67 23.68 0.34 23 0 C27.29 0 31.58 0 36 0 C35.21625 0.86625 34.4325 1.7325 33.625 2.625 C30.44416452 6.34871846 27.51331998 10.23565531 24.625 14.1875 C24.17205566 14.79352051 23.71911133 15.39954102 23.25244141 16.02392578 C20.82672182 19.38725607 20 20.72842232 20 25 C21.00748103 27.28226532 21.00748103 27.28226532 22.44921875 29.58984375 C23.22749023 30.89018555 23.22749023 30.89018555 24.02148438 32.21679688 C24.57126953 33.11462891 25.12105469 34.01246094 25.6875 34.9375 C26.21794922 35.83146484 26.74839844 36.72542969 27.29492188 37.64648438 C30.15890572 42.37996442 32.99628015 46.2042656 37 50 C37 50.66 37 51.32 37 52 C32.71 52 28.42 52 24 52 C23.60167969 51.00871094 23.20335938 50.01742187 22.79296875 48.99609375 C20.99002377 44.78922213 18.70672768 40.95437309 16.3125 37.0625 C14.889375 34.731875 13.46625 32.40125 12 30 C11.67 36.6 11.34 43.2 11 50 C8.36 50 5.72 50 3 50 C2.99191315 49.41784225 2.98382629 48.83568451 2.97549438 48.23588562 C2.88953903 42.1851083 2.79003957 36.13466201 2.68261719 30.08422852 C2.64429779 27.82517041 2.60945019 25.56605068 2.578125 23.30688477 C2.53253893 20.06243843 2.47453362 16.81841752 2.4140625 13.57421875 C2.40251129 12.56163498 2.39096008 11.54905121 2.37905884 10.50578308 C2.35918915 9.56503433 2.33931946 8.62428558 2.31884766 7.6550293 C2.30552399 6.82674118 2.29220032 5.99845306 2.2784729 5.14506531 C2.12261241 2.70403867 2.12261241 2.70403867 0 0 Z " fill="#DBCEAB" transform="translate(87,70)"/>
<path d="M0 0 C12.67460665 9.64998461 20.31690357 25.53473514 22.953125 41.05078125 C25.01089934 58.22255329 23.279581 74.70372921 14.40625 89.83203125 C14.07625 89.17203125 13.74625 88.51203125 13.40625 87.83203125 C14.4906467 84.68407797 15.79433263 81.65184573 17.08203125 78.58203125 C23.6917123 59.86435041 21.87250905 38.3544188 13.71875 20.45703125 C7.9474451 9.78446742 -0.65709514 1.26563213 -12.09375 -3.04296875 C-20.39667406 -5.47906973 -29.34539108 -4.69137327 -37.13671875 -0.9453125 C-49.58721738 6.11813226 -58.14361001 17.76541001 -62.07421875 31.5859375 C-65.06764908 44.52745961 -65.94791486 57.55368286 -63.03125 70.59765625 C-62.59375 72.83203125 -62.59375 72.83203125 -62.59375 76.83203125 C-63.25375 76.83203125 -63.91375 76.83203125 -64.59375 76.83203125 C-69.09876946 59.9155927 -68.84986908 39.89915208 -61.59375 23.83203125 C-61.14773437 22.82527344 -60.70171875 21.81851563 -60.2421875 20.78125 C-54.7219898 9.63291777 -45.60113423 -0.34085557 -34.01953125 -5.26171875 C-22.02727628 -9.22852897 -10.50084748 -6.82887392 0 0 Z " fill="#A79876" transform="translate(111.59375,37.16796875)"/>
<path d="M0 0 C2.10263102 3.15394652 3.01776618 5.82463704 4.125 9.4375 C4.47820312 10.57058594 4.83140625 11.70367187 5.1953125 12.87109375 C6 16 6 16 6 20 C2.04 20 -1.92 20 -6 20 C-2.28571429 2.28571429 -2.28571429 2.28571429 0 0 Z " fill="#0C121B" transform="translate(66,83)"/>
<path d="M0 0 C2.49306632 4.88478848 3.12570644 8.46891658 3 14 C3.66 14.33 4.32 14.66 5 15 C5 15.66 5 16.32 5 17 C1.04 17 -2.92 17 -7 17 C-7 16.34 -7 15.68 -7 15 C-6.01 14.34 -5.02 13.68 -4 13 C-2.75752778 9.90289577 -2.75752778 9.90289577 -1.8125 6.375 C-1.46832031 5.18648438 -1.12414063 3.99796875 -0.76953125 2.7734375 C-0.51558594 1.85820313 -0.26164062 0.94296875 0 0 Z " fill="#B3A78B" transform="translate(54,105)"/>
<path d="M0 0 C4.29 0 8.58 0 13 0 C12.0925 1.03125 11.185 2.0625 10.25 3.125 C7.54270734 6.27495425 5.22269007 9.49498873 3 13 C1.68 12.67 0.36 12.34 -1 12 C-0.11223998 8.30099992 0.94581864 4.65449539 2 1 C1.34 0.67 0.68 0.34 0 0 Z " fill="#F3F1D4" transform="translate(110,70)"/>
<path d="M0 0 C10.21844399 4.78310144 17.99185171 14.52653425 22 25 C21.67 25.99 21.34 26.98 21 28 C20.67128906 27.32195313 20.34257813 26.64390625 20.00390625 25.9453125 C14.91995911 15.99786036 8.45893759 8.03761974 -1 2 C-0.67 1.34 -0.34 0.68 0 0 Z " fill="#AE9C76" transform="translate(107,35)"/>
<path d="M0 0 C0.33 0.66 0.66 1.32 1 2 C1.99 2 2.98 2 4 2 C3.01 5.63 2.02 9.26 1 13 C-0.32 12.67 -1.64 12.34 -3 12 C-2.68950274 10.56206608 -2.3765224 9.1246682 -2.0625 7.6875 C-1.88847656 6.88699219 -1.71445312 6.08648437 -1.53515625 5.26171875 C-1 3 -1 3 0 0 Z " fill="#CBBFA1" transform="translate(59,90)"/>
<path d="M0 0 C4.62 0 9.24 0 14 0 C14 0.33 14 0.66 14 1 C10.7 1 7.4 1 4 1 C4.33 2.32 4.66 3.64 5 5 C5.39357616 11.05412737 4.76201897 16.99910063 4 23 C3.67 23 3.34 23 3 23 C2.98018066 22.40985107 2.96036133 21.81970215 2.93994141 21.21166992 C2.84465341 18.53649904 2.73499061 15.86210502 2.625 13.1875 C2.57859375 11.7943457 2.57859375 11.7943457 2.53125 10.37304688 C2.49257812 9.48037109 2.45390625 8.58769531 2.4140625 7.66796875 C2.3826416 6.84578857 2.3512207 6.0236084 2.31884766 5.17651367 C2.11626378 2.71047063 2.11626378 2.71047063 0 0 Z " fill="#F8F2D4" transform="translate(87,70)"/>
<path d="M0 0 C0.33 0.66 0.66 1.32 1 2 C1.99 2.33 2.98 2.66 4 3 C2.8125 5.4375 2.8125 5.4375 1 8 C-1.6875 8.8125 -1.6875 8.8125 -4 9 C-3.35455571 5.51460083 -1.89865603 2.97180943 0 0 Z " fill="#E5DAB8" transform="translate(108,80)"/>
<path d="M0 0 C0.33 0 0.66 0 1 0 C0.85892253 1.45880109 0.71197585 2.91703551 0.5625 4.375 C0.48128906 5.18710938 0.40007812 5.99921875 0.31640625 6.8359375 C0 9 0 9 -1 11 C-1.99 11 -2.98 11 -4 11 C-3.67 8.36 -3.34 5.72 -3 3 C-2.01 2.67 -1.02 2.34 0 2 C0 1.34 0 0.68 0 0 Z " fill="#E4D8B7" transform="translate(64,81)"/>
<path d="M0 0 C2.04119788 1.61594832 4.04072937 3.2856382 6 5 C6 5.66 6 6.32 6 7 C1.71 7 -2.58 7 -7 7 C-4.4345406 4.4345406 -2.52313332 4.45953913 1 4 C0.67 2.68 0.34 1.36 0 0 Z " fill="#A89E85" transform="translate(118,115)"/>
<path d="M0 0 C0.99 0.33 1.98 0.66 3 1 C3 2.65 3 4.3 3 6 C2.34 6 1.68 6 1 6 C0.01 8.64 -0.98 11.28 -2 14 C-2.33 14 -2.66 14 -3 14 C-2.48594831 9.03083364 -1.76615118 4.70973649 0 0 Z " fill="#E7E6CC" transform="translate(67,66)"/>
<path d="M0 0 C0.99 0.33 1.98 0.66 3 1 C1.68 3.31 0.36 5.62 -1 8 C-2.32 7.67 -3.64 7.34 -5 7 C-5 6.01 -5 5.02 -5 4 C-4.360625 3.71125 -3.72125 3.4225 -3.0625 3.125 C-0.84793921 2.17176549 -0.84793921 2.17176549 0 0 Z " fill="#EFE7C5" transform="translate(114,75)"/>
<path d="M0 0 C0.66 0 1.32 0 2 0 C2 1.32 2 2.64 2 4 C-1.96 4 -5.92 4 -10 4 C-9.67 3.01 -9.34 2.02 -9 1 C-9 1.66 -9 2.32 -9 3 C-7.700625 2.87625 -6.40125 2.7525 -5.0625 2.625 C-4.33160156 2.55539063 -3.60070312 2.48578125 -2.84765625 2.4140625 C-2.23792969 2.27742188 -1.62820312 2.14078125 -1 2 C-0.67 1.34 -0.34 0.68 0 0 Z " fill="#202428" transform="translate(70,99)"/>
<path d="M0 0 C2 3 2 3 1.625 5.1875 C1.41875 5.785625 1.2125 6.38375 1 7 C0.01 7 -0.98 7 -2 7 C-1.125 1.125 -1.125 1.125 0 0 Z " fill="#25292D" transform="translate(66,83)"/>
<path d="M0 0 C1.41377341 2.63904371 2.37240135 5.07120629 3 8 C1.68 8 0.36 8 -1 8 C-0.67 5.36 -0.34 2.72 0 0 Z " fill="#BAAF92" transform="translate(54,105)"/>
</svg>
